#define 1455962820714_width 18
#define 1455962820714_height 18
static char 1455962820714_bits[] = {
  0x00, 0x00, 0x00, 0x00, 0x00, 0x00, 0x00, 0x00, 0x00, 0xF0, 0x78, 0x00, 
  0x78, 0xF8, 0x00, 0x38, 0xFC, 0x00, 0x3C, 0xFC, 0x01, 0x1C, 0xDE, 0x01, 
  0x1E, 0xCF, 0x03, 0x0E, 0x87, 0x03, 0x9E, 0xC7, 0x03, 0xDC, 0xC3, 0x01, 
  0xFC, 0xE1, 0x01, 0xF8, 0xF1, 0x00, 0xF8, 0xF0, 0x00, 0xF0, 0x78, 0x00, 
  0x00, 0x00, 0x00, 0x00, 0x00, 0x00, };
